<?xml version="1.0" encoding="UTF-8"?>
<svg id="Layer_1" xmlns="http://www.w3.org/2000/svg" viewBox="0 0 280.95 394.76">
  <defs>
    <style>
      .cls-1 {
        fill: #ed1c24;
      }

      .cls-2 {
        fill: #fff;
      }

      .cls-3 {
        fill: #2e3192;
      }

      .cls-4 {
        fill: none;
        stroke: #fff200;
        stroke-miterlimit: 10;
        stroke-width: 4px;
      }
    </style>
  </defs>
  <text/>
  <ellipse class="cls-1" cx="271.78" cy="385.7" rx="9.17" ry="9.06"/>
  <path class="cls-3" d="M140.26,322.25c-.1,0-.2-.02-.3-.02-5.06,0-9.17,4.06-9.17,9.06s4.1,9.06,9.17,9.06c.06,0,.12,0,.18,0-.78-5.76.97-12.36.12-18.1Z"/>
  <ellipse class="cls-4" cx="11.63" cy="311.88" rx="9.63" ry="8.73"/>
  <ellipse class="cls-4" cx="21.27" cy="311.88" rx="9.63" ry="8.73"/>
  <path class="cls-2" d="M11.47,393.53v-65.66h9.96v65.66h-9.96Z"/>
  <path class="cls-2" d="M36.17,380.83c3.29,3.54,9.66,6.79,16.13,6.79s10.36-2.76,10.36-6.79c0-4.72-5.48-6.3-11.65-7.68-8.17-1.87-17.73-4.04-17.73-14.27,0-7.58,6.57-14.08,18.32-14.08,8.27,0,14.24,2.95,18.32,6.79l-3.98,6.2c-2.79-3.35-8.17-5.81-14.24-5.81s-9.86,2.36-9.86,6.2c0,4.13,5.18,5.51,11.15,6.89,8.36,1.87,18.32,4.13,18.32,15.06,0,8.17-6.77,14.57-19.42,14.57-8.07,0-15.14-2.46-20.02-7.38l4.28-6.5Z"/>
  <path class="cls-2" d="M112.35,393.53v-5.22c-3.78,4.13-9.26,6.4-15.73,6.4-7.97,0-16.73-5.32-16.73-15.75s8.66-15.55,16.73-15.55c6.47,0,12.05,2.07,15.73,6.3v-7.88c0-5.91-4.88-9.45-11.75-9.45-5.48,0-10.16,2.07-14.44,6.3l-3.88-6.1c5.38-5.22,11.95-7.78,19.72-7.78,10.46,0,19.32,4.53,19.32,16.63v32.09h-8.96ZM112.35,375.02c-2.69-3.54-7.37-5.41-12.35-5.41-6.47,0-11.05,3.84-11.05,9.45s4.58,9.45,11.05,9.45c4.98,0,9.66-1.87,12.35-5.41v-8.07Z"/>
  <path class="cls-2" d="M135.65,393.53v-47.54h8.96v47.54h-8.96Z"/>
  <path class="cls-2" d="M188.52,393.53v-5.22c-3.78,4.13-9.26,6.4-15.73,6.4-7.97,0-16.73-5.32-16.73-15.75s8.66-15.55,16.73-15.55c6.47,0,12.05,2.07,15.73,6.3v-7.88c0-5.91-4.88-9.45-11.75-9.45-5.48,0-10.16,2.07-14.44,6.3l-3.88-6.1c5.38-5.22,11.95-7.78,19.72-7.78,10.46,0,19.32,4.53,19.32,16.63v32.09h-8.96ZM188.52,375.02c-2.69-3.54-7.37-5.41-12.35-5.41-6.47,0-11.05,3.84-11.05,9.45s4.58,9.45,11.05,9.45c4.98,0,9.66-1.87,12.35-5.41v-8.07Z"/>
  <path class="cls-2" d="M244.29,393.53v-30.61c0-7.88-4.08-10.24-10.26-10.24-5.58,0-10.65,3.35-13.24,6.89v33.96h-8.96v-65.66h8.96v24.81c3.19-3.84,9.66-7.87,17.03-7.87,10.26,0,15.43,5.12,15.43,15.16v33.57h-8.96Z"/>
</svg>